<svg xmlns="http://www.w3.org/2000/svg"  viewBox="0 0 32 32" width="64px" height="64px" fill-rule="evenodd"><path d="m 8.0193,1023.412 a 0.50005,0.50005 0 0 0 -0.3496,0.8574 l 0.6797,0.6797 c -1.0036,1.0904 -1.7809,2.3152 -2.3067,3.6211 -1.7384,4.3177 -0.8665,9.4463 2.6152,12.9512 2.2159,2.2305 5.0965,3.3948 8.0137,3.5156 l 0,3.2754 -3.4922,0 a 0.5000489,0.5000489 0 1 0 0,1 l 7.9844,0 a 0.5000489,0.5000489 0 1 0 0,-1 l -3.4922,0 0,-3.2754 c 2.7449,-0.1139 5.4515,-1.1631 7.6133,-3.1524 l 0.6797,0.6797 a 0.50005,0.50005 0 1 0 0.707,-0.707 l -1.998,-1.9981 c -0.2254,0.2488 -0.4611,0.4847 -0.7071,0.7071 l 0.6114,0.6113 c -4.3368,3.9618 -11.0388,3.8386 -15.211,-0.3613 -4.155,-4.1827 -4.2513,-10.848 -0.3105,-15.1602 l 0.625,0.625 c 0.2256,-0.2491 0.4568,-0.4883 0.7031,-0.7109 l -2.0078,-2.0078 a 0.50005,0.50005 0 0 0 -0.3574,-0.1504 z" style="line-height:normal;text-indent:0;text-align:start;text-decoration-line:none;text-decoration-style:solid;text-decoration-color:#000;text-transform:none;white-space:normal;isolation:auto;mix-blend-mode:normal;solid-color:#000;solid-opacity:1" fill="#3b3c3d" fill-rule="evenodd" color="#000" font-family="sans-serif" font-weight="400" overflow="visible" transform="translate(0 -1020.362)"/><path fill="#3b3c3d" d="m 16.7361,1023.8221 a 9.2508677,9.2507688 37.801732 0 0 -7.5762,4.6153 9.2508677,9.2507688 37.801732 0 0 3.3867,12.6367 9.2508677,9.2507688 37.801732 0 0 12.6367,-3.3848 9.2508677,9.2507688 37.801732 0 0 -3.3867,-12.6367 9.2508677,9.2507688 37.801732 0 0 -5.0605,-1.2305 z m 2.6543,2.0938 a 0.50004955,0.50004813 0 0 1 0.1465,0.027 c 0.473,0.1577 0.9369,0.3664 1.3847,0.625 0.4478,0.2585 0.8594,0.5559 1.2324,0.8867 0.1866,0.1654 0.3644,0.3389 0.5313,0.5196 0.1669,0.1808 0.3238,0.37 0.4707,0.5644 a 0.50004955,0.50004813 0 1 1 -0.7988,0.6016 c -0.1272,-0.1683 -0.2617,-0.3317 -0.4063,-0.4883 -0.1445,-0.1565 -0.2975,-0.3061 -0.459,-0.4492 -0.3231,-0.2865 -0.681,-0.5447 -1.0703,-0.7695 -0.3893,-0.2248 -0.7896,-0.4046 -1.1992,-0.5411 a 0.50004955,0.50004813 0 0 1 -0.2871,-0.7187 0.50004955,0.50004813 0 0 1 0.4551,-0.2578 z" transform="translate(0 -1020.362)"/></svg>